<?xml version="1.0" encoding="utf-8"?>
<!-- Generator: Adobe Illustrator 18.1.1, SVG Export Plug-In . SVG Version: 6.00 Build 0)  -->
<svg version="1.1" id="Layer_1" xmlns="http://www.w3.org/2000/svg" xmlns:xlink="http://www.w3.org/1999/xlink" x="0px" y="0px"
	 viewBox="0 0 1000 265" enable-background="new 0 0 1000 265" xml:space="preserve">
<g>
	<path fill="#222222" d="M252.3,264.9c-23.9-0.1-42.8-4.5-58.7-18c-13.4-11.4-21.2-25.9-23-43.5c-2.5-25,2.8-48.1,16.9-68.8
		c12.4-18.2,28.7-32.3,49.3-40.9c16.9-7,34.6-9.4,52.8-8.4c14.2,0.7,27.5,4.4,39.4,12.1c17.2,11.2,27.9,27,30,47.7
		c0.9,8.9,0.2,17.9-0.4,26.9c-0.8,11.5-4.7,22.2-9.9,32.4c-7.8,15.4-19.1,27.9-32.7,38.3c-12.8,9.8-27.2,16.4-42.9,19.6
		C265,263.8,256.9,264.3,252.3,264.9z M228.1,225c0.4,4.7,0.7,9.4,1.2,14c0.3,2.3,0.9,4.5,1.6,6.7c3.9,12.5,14.4,16.6,25.6,10
		c6.2-3.7,10.3-9.4,14-15.4c9.7-15.8,15.6-33.3,20.1-51.1c4-15.9,7-32,9.9-48.1c2.1-11.6,2.5-23.3-0.3-34.9
		c-2.9-12.1-12.3-17.9-23-13.9c-5.4,2-9.3,5.7-12.8,10.2c-9.3,12.2-14.9,26.3-19.3,40.8c-4.4,14.4-8.2,29.1-11.7,43.8
		C230.3,199.5,228.3,212.1,228.1,225z"/>
	<path fill="#222222" d="M796.6,214.2c-0.3,0.8-0.6,1.6-1,2.4c-7.5,14.1-17.6,26-30.9,34.8c-8.4,5.6-17.7,9.6-27.7,11
		c-9.4,1.3-18.9,2.3-28.4,1.9c-22-0.8-40.6-9.2-54.1-27.2c-7-9.3-10.8-20-11.9-31.6c-3.4-36.8,10.4-66.7,37.1-91.3
		C695.4,99.8,714.1,91,734.8,87c18.5-3.6,37.1-3.8,54.9,3.5c10.6,4.4,19.6,10.9,22.9,22.5c4.2,14.7,0.7,27.9-10.3,38.8
		c-7.9,7.9-17.9,12.2-28.2,15.8c-12.9,4.5-26.3,6.9-39.8,8.1c-9.1,0.9-18.1,1.4-27.2,1.9c-1.9,0.1-2.7,0.8-2.9,2.5
		c-1.5,13.8-1.9,27.5,5,40.1c6.1,11.3,16.2,17,28.8,18.5c21,2.5,38-5.4,52.4-20.1c1.7-1.8,3.5-3.5,5.2-5.2
		C795.9,213.8,796.2,214,796.6,214.2z M705.2,173.4c0.9,0,1.5,0.1,2,0c1.4-0.2,2.9-0.4,4.3-0.7c22.4-4.1,39.8-15.5,51.1-35.6
		c6.2-11,8.9-23,7.3-35.6c-1.2-9.9-7.2-12.3-16.6-9.6c-6.4,1.8-11.4,6-15.8,10.9c-9.3,10.4-16,22.3-21.6,35
		C710.9,149.1,707.6,160.9,705.2,173.4z"/>
	<path fill="#222222" d="M812.1,260.9c1.5-5.9,2.9-11.8,4.3-17.6c5.3-21.3,10.6-42.5,15.9-63.8c4.4-17.6,8.9-35.2,13.3-52.8
		c1.1-4.5,2.1-9,2.7-13.5c1.2-8.4-1.5-15.4-8.3-20.8c-1.1-0.9-2.2-1.9-3.3-2.8c-0.1-0.1-0.2-0.4-0.4-0.9c26.5,0,52.9,0,79.9,0
		c-4.5,18.4-8.9,36.5-13.4,54.6c0.2,0.1,0.5,0.2,0.7,0.3c0.4-0.5,0.8-1,1.1-1.6c6.3-12.5,12.8-24.9,22-35.6
		c7.9-9.2,16.9-16.7,29-19.9c12.5-3.3,29.4-1.2,38.3,11.1c4.3,6,6.2,12.7,6,20c-0.4,17.9-8.5,31.1-24.8,38.5
		c-9.6,4.3-19.9,4.6-29.9,0.5c-1.2-0.5-2.2-1.4-3.8-2.5c1.4-0.4,2-0.7,2.6-0.8c12.4-2.9,16.1-18.9,11.7-27.5
		c-3.2-6.4-9.1-7.9-15.6-7.7c-9.3,0.3-16,5.6-21.8,12.2c-9,10.2-15.7,22-19.6,35c-5.3,17.4-9.8,35.1-14.4,52.8
		c-3.6,13.6-6.8,27.3-10.3,41c-0.2,0.9-1.6,2.3-2.5,2.3c-19.4,0.1-38.7,0.1-58.1,0.1C813.2,261.3,812.8,261.1,812.1,260.9z"/>
	<path fill="#222222" d="M479.1,133.2c9.5-4.5,13-10.6,12.5-20.7c-0.5-9.1-5.7-16.5-14-19.3c-11.8-4.1-23.5-3.6-34.6,2.2
		c-15.4,8-17.5,28.9-1.6,38.9c8.2,5.1,16.8,9.8,25.2,14.5c11.4,6.4,22.9,12.7,32.6,21.6c8.4,7.7,13.1,17.4,13.7,28.9
		c1.1,18.5-6.8,32.8-20.5,44.3c-13.9,11.7-30.2,18-48.1,20.2c-13.8,1.7-27.7,1.5-41.2-1.5c-12.9-2.8-25.5-7.1-34.9-17.2
		c-7.1-7.6-10.2-16.4-7.4-26.8c1.9-6.7,6.5-11,12.7-13.8c9.9-4.4,19.7-3.8,29.5,0.4c1.9,0.8,3.6,2.3,5.7,3.8c-0.9,0.6-1.3,0.9-1.8,1
		c-7.6,2.8-11.7,8.3-12.1,16.5c-0.7,14.9,7.7,26.9,22.3,30.7c13.1,3.5,26.1,3.3,38.2-3.7c14.7-8.4,16.6-27.8,3.3-38.4
		c-6.1-4.9-13.1-9-20-12.8c-10.8-5.9-21.9-11.4-31.7-19c-5.9-4.6-11.1-9.9-14.4-16.7c-8.8-18-6.9-35.2,5-50.9
		c11.4-15.1,27.2-24,45.5-28c19-4.2,38-3.5,56.6,2.9c8.1,2.8,15.6,6.7,20.6,14c10,14.7,3.1,32.2-14.2,35.9
		c-7.4,1.6-14.6,1.2-21.3-2.5C483,136.8,481.4,135,479.1,133.2z"/>
	<path fill="#222222" d="M103,141.1c3.1,0.4,5.9,1.1,8.8,1c11.3-0.3,18.1-10.5,20.5-19.9c1.6-6.4,2.1-12.9,0.3-19.5
		c-2-7.4-7.1-11.5-14.7-11.5c-11.1,0-19.1,6.1-25.9,14c-11.8,13.8-19.5,29.8-24.9,47c-5,15.6-6.9,31.7-5.6,48
		c1.3,15.9,7.7,29.4,22.9,36.3c12.2,5.5,25,4.9,37.5-0.1c9.5-3.9,17.1-10.4,23.9-17.9c1.4-1.6,3-3,4.6-4.5c0.3,0.3,0.7,0.6,1,0.8
		c-2.4,4.1-4.5,8.3-7.1,12.3c-8.5,12.7-19.2,22.8-33,29.6c-8.4,4.1-17.2,6.3-26.4,7.5c-10.8,1.4-21.5,1.1-32.1-1.2
		c-10.5-2.2-20-6.7-28.3-13.4C5.4,233.7-0.8,213,0.1,189.2c0.5-11.6,2.5-22.8,6.8-33.6c6.4-16.1,16.6-29.4,29.4-40.8
		c13.2-11.8,28.3-20.4,45.4-25c18.2-4.9,36.6-6.8,55.1-1.7c10.8,3,20.2,8.2,26.2,18.1c10.4,17.3,3.5,40.9-14.5,50.1
		c-9,4.6-18.3,5.5-28,3.4C112.7,157.8,103.1,149.1,103,141.1z"/>
	<path fill="#222222" d="M553,88.6c26.6,0,53.1,0,80,0c-2.4,9.7-4.8,19.2-7.1,28.7c-9,36-17.9,71.9-26.9,107.9
		c-0.4,1.5-0.6,3.1-0.8,4.6c-1.7,10.2,3.9,16.7,14.2,15.9c4.7-0.4,9.3-2,14-3.1c1.3-0.3,2.5-0.9,4.5-1.6
		c-7.2,7.9-14.8,13.8-23.8,17.7c-15.2,6.6-30.8,8.2-46.8,3.2c-12.6-3.9-21-15.2-22.3-28.3c-1-9.9,2-19,4.3-28.3
		c7-28.2,14.2-56.3,21.2-84.4c0.8-3,1.3-6.1,1.7-9.2c1.1-8.5-2.8-14.7-9.2-19.8c-1.1-0.9-2.2-1.7-3.4-2.6
		C552.7,89.1,552.9,88.9,553,88.6z"/>
	<path fill="#222222" d="M647,35.5c0.5,16.4-17.8,33.4-39.2,31.4c-13.3-1.2-23.2-7.3-27.7-20.1c-6.9-19.8,5.1-40.4,24.5-45.4
		c8.9-2.3,17.8-1.8,25.9,2.5C641.9,9.8,646.9,19.6,647,35.5z"/>
	<path fill="#FFFFFF" d="M228.1,225c0.2-12.9,2.3-25.5,5.2-37.9c3.4-14.7,7.3-29.4,11.7-43.8c4.4-14.5,10-28.5,19.3-40.8
		c3.4-4.5,7.4-8.2,12.8-10.2c10.8-4,20.1,1.8,23,13.9c2.8,11.6,2.4,23.3,0.3,34.9c-2.9,16.1-5.9,32.2-9.9,48.1
		c-4.5,17.8-10.4,35.2-20.1,51.1c-3.6,6-7.7,11.7-14,15.4c-11.2,6.6-21.7,2.5-25.6-10c-0.7-2.2-1.3-4.4-1.6-6.7
		C228.8,234.3,228.5,229.7,228.1,225z"/>
	<path fill="#FFFFFF" d="M705.2,173.4c2.4-12.5,5.7-24.3,10.7-35.6c5.6-12.7,12.3-24.6,21.6-35c4.4-4.9,9.4-9.1,15.8-10.9
		c9.5-2.6,15.4-0.3,16.6,9.6c1.6,12.6-1.1,24.6-7.3,35.6c-11.2,20.1-28.6,31.5-51.1,35.6c-1.4,0.3-2.9,0.5-4.3,0.7
		C706.7,173.5,706.1,173.4,705.2,173.4z"/>
</g>
</svg>
